<svg xmlns="http://www.w3.org/2000/svg" viewBox="0 0 220 220">
  <rect width="220" height="220" fill="#fff"/>
  <rect x="16" y="16" width="56" height="56" fill="#111"/>
  <rect x="24" y="24" width="40" height="40" fill="#fff"/>
  <rect x="32" y="32" width="24" height="24" fill="#111"/>
  <rect x="148" y="16" width="56" height="56" fill="#111"/>
  <rect x="156" y="24" width="40" height="40" fill="#fff"/>
  <rect x="164" y="32" width="24" height="24" fill="#111"/>
  <rect x="16" y="148" width="56" height="56" fill="#111"/>
  <rect x="24" y="156" width="40" height="40" fill="#fff"/>
  <rect x="32" y="164" width="24" height="24" fill="#111"/>
  <g fill="#111">
    <rect x="88" y="24" width="8" height="8"/><rect x="104" y="24" width="8" height="8"/><rect x="120" y="24" width="8" height="8"/>
    <rect x="88" y="40" width="8" height="8"/><rect x="112" y="40" width="8" height="8"/><rect x="136" y="40" width="8" height="8"/>
    <rect x="96" y="56" width="8" height="8"/><rect x="120" y="56" width="8" height="8"/><rect x="144" y="56" width="8" height="8"/>
    <rect x="88" y="88" width="8" height="8"/><rect x="104" y="88" width="8" height="8"/><rect x="128" y="88" width="8" height="8"/>
    <rect x="152" y="88" width="8" height="8"/><rect x="176" y="88" width="8" height="8"/><rect x="192" y="88" width="8" height="8"/>
    <rect x="88" y="104" width="8" height="8"/><rect x="112" y="104" width="8" height="8"/><rect x="136" y="104" width="8" height="8"/>
    <rect x="160" y="104" width="8" height="8"/><rect x="184" y="104" width="8" height="8"/><rect x="88" y="120" width="8" height="8"/>
    <rect x="104" y="120" width="8" height="8"/><rect x="128" y="120" width="8" height="8"/><rect x="152" y="120" width="8" height="8"/>
    <rect x="176" y="120" width="8" height="8"/><rect x="88" y="136" width="8" height="8"/><rect x="112" y="136" width="8" height="8"/>
    <rect x="136" y="136" width="8" height="8"/><rect x="160" y="136" width="8" height="8"/><rect x="184" y="136" width="8" height="8"/>
    <rect x="88" y="152" width="8" height="8"/><rect x="104" y="152" width="8" height="8"/><rect x="120" y="152" width="8" height="8"/>
    <rect x="144" y="152" width="8" height="8"/><rect x="168" y="152" width="8" height="8"/><rect x="192" y="152" width="8" height="8"/>
    <rect x="88" y="168" width="8" height="8"/><rect x="112" y="168" width="8" height="8"/><rect x="136" y="168" width="8" height="8"/>
    <rect x="160" y="168" width="8" height="8"/><rect x="184" y="168" width="8" height="8"/><rect x="88" y="184" width="8" height="8"/>
    <rect x="104" y="184" width="8" height="8"/><rect x="128" y="184" width="8" height="8"/><rect x="152" y="184" width="8" height="8"/>
    <rect x="176" y="184" width="8" height="8"/><rect x="192" y="184" width="8" height="8"/>
  </g>
</svg>
